# xmcd CD database file
#
# Track frame offsets:
#	182
#	14707
#	32515
#	46892
#	65112
#	82245
#	102717
#	116607
#	135482
#	155677
#	169787
#	188415
#
# Disc length: 2753 seconds
#
# Revision: 3
# Processed by: cddbd v1.5.1PL0 Copyright (c) Steve Scherf et al.
# Submitted via: CDex 1.51
#
DISCID=a50abf0c
DTITLE=Víctor Manuel - Sin memoria
DYEAR=1996
DGENRE=Pop
TTITLE0=Sin memoria
TTITLE1=Canción pequeña
TTITLE2=Si todas mis noches fueran como anoche
TTITLE3=Cuatro latas de cerveza
TTITLE4=Como no estabas tú
TTITLE5=Agua de la fuente clara
TTITLE6=Yo ya no soy el que soy
TTITLE7=Vete pena
TTITLE8=Niño de nadie
TTITLE9=Cayó la luna
TTITLE10=Como el agua en un pañuelo
TTITLE11=Laura ya no vive aquí
EXTD=YEAR: 1996
EXTT0=
EXTT1=
EXTT2=
EXTT3=
EXTT4=
EXTT5=
EXTT6=
EXTT7=
EXTT8=
EXTT9=
EXTT10=
EXTT11=
PLAYORDER=
